<?xml version="1.0" encoding="UTF-8"?>
<svg xmlns:svg="http://www.w3.org/2000/svg" xmlns="http://www.w3.org/2000/svg" width="149.25" height="25" viewBox="0 0 149.25 25">
    <rect fill="#2976B7" width="57" height="25" x="0" y="0" />
    <rect fill="#174168" width="92.25" height="25" x="57" y="0" />
    <g transform="translate(6.25, 18.414062)"><path transform="translate(0.000000,0)" d=" M 2.968750,0.000000  L 2.968750,-11.046875  L 1.593750,-11.046875  L 1.593750,0.000000  L 2.968750,0.000000 " fill="#ffffff" /><path transform="translate(4.218750,0)" d=" M 3.640625,-8.703125  C 1.906250,-8.703125 0.718750,-7.781250 0.718750,-6.218750  C 0.718750,-4.734375 1.937500,-4.109375 3.453125,-3.703125  C 4.875000,-3.312500 5.453125,-2.875000 5.453125,-2.062500  C 5.453125,-1.250000 4.718750,-0.828125 3.812500,-0.828125  C 2.828125,-0.828125 2.046875,-1.265625 1.828125,-2.500000  L 0.390625,-2.500000  C 0.640625,-0.578125 1.968750,0.218750 3.718750,0.218750  C 5.500000,0.218750 6.859375,-0.578125 6.859375,-2.171875  C 6.859375,-3.609375 5.937500,-4.390625 3.984375,-4.890625  C 2.828125,-5.203125 2.125000,-5.531250 2.125000,-6.390625  C 2.125000,-7.125000 2.578125,-7.640625 3.531250,-7.640625  C 4.531250,-7.640625 5.140625,-7.062500 5.328125,-6.062500  L 6.765625,-6.062500  C 6.593750,-7.609375 5.546875,-8.703125 3.640625,-8.703125 " fill="#ffffff" /><path transform="translate(11.562500,0)" d=" M 3.640625,-8.703125  C 1.906250,-8.703125 0.718750,-7.781250 0.718750,-6.218750  C 0.718750,-4.734375 1.937500,-4.109375 3.453125,-3.703125  C 4.875000,-3.312500 5.453125,-2.875000 5.453125,-2.062500  C 5.453125,-1.250000 4.718750,-0.828125 3.812500,-0.828125  C 2.828125,-0.828125 2.046875,-1.265625 1.828125,-2.500000  L 0.390625,-2.500000  C 0.640625,-0.578125 1.968750,0.218750 3.718750,0.218750  C 5.500000,0.218750 6.859375,-0.578125 6.859375,-2.171875  C 6.859375,-3.609375 5.937500,-4.390625 3.984375,-4.890625  C 2.828125,-5.203125 2.125000,-5.531250 2.125000,-6.390625  C 2.125000,-7.125000 2.578125,-7.640625 3.531250,-7.640625  C 4.531250,-7.640625 5.140625,-7.062500 5.328125,-6.062500  L 6.765625,-6.062500  C 6.593750,-7.609375 5.546875,-8.703125 3.640625,-8.703125 " fill="#ffffff" /><path transform="translate(18.906250,0)" d=" M 8.218750,-8.484375  L 6.843750,-8.484375  L 6.843750,-4.750000  C 6.843750,-1.859375 5.796875,-0.859375 4.468750,-0.859375  C 3.312500,-0.859375 2.625000,-1.515625 2.500000,-2.484375  C 2.453125,-2.906250 2.437500,-3.375000 2.437500,-3.640625  L 2.437500,-8.484375  L 1.062500,-8.484375  L 1.062500,-3.390625  C 1.062500,-2.703125 1.078125,-2.375000 1.140625,-1.937500  C 1.328125,-0.765625 2.359375,0.218750 4.109375,0.218750  C 4.968750,0.218750 5.593750,0.078125 6.312500,-0.453125  L 6.843750,-1.437500  L 6.843750,0.000000  L 8.218750,0.000000  L 8.218750,-8.484375 " fill="#ffffff" /><path transform="translate(28.375000,0)" d=" M 8.140625,-4.484375  C 8.140625,-6.953125 6.843750,-8.703125 4.515625,-8.703125  C 2.187500,-8.703125 0.484375,-6.953125 0.484375,-4.203125  C 0.484375,-1.218750 2.125000,0.218750 4.343750,0.218750  C 6.078125,0.218750 7.703125,-0.687500 8.031250,-2.734375  L 6.593750,-2.734375  C 6.406250,-1.515625 5.500000,-0.828125 4.406250,-0.828125  C 3.156250,-0.828125 2.093750,-1.578125 1.968750,-3.828125  L 8.109375,-3.828125  C 8.140625,-4.125000 8.140625,-4.359375 8.140625,-4.484375  M 4.484375,-7.640625  C 5.875000,-7.640625 6.625000,-6.640625 6.750000,-4.875000  L 1.984375,-4.875000  C 2.140625,-6.687500 3.140625,-7.640625 4.484375,-7.640625 " fill="#ffffff" /><path transform="translate(37.156250,0)" d=" M 3.640625,-8.703125  C 1.906250,-8.703125 0.718750,-7.781250 0.718750,-6.218750  C 0.718750,-4.734375 1.937500,-4.109375 3.453125,-3.703125  C 4.875000,-3.312500 5.453125,-2.875000 5.453125,-2.062500  C 5.453125,-1.250000 4.718750,-0.828125 3.812500,-0.828125  C 2.828125,-0.828125 2.046875,-1.265625 1.828125,-2.500000  L 0.390625,-2.500000  C 0.640625,-0.578125 1.968750,0.218750 3.718750,0.218750  C 5.500000,0.218750 6.859375,-0.578125 6.859375,-2.171875  C 6.859375,-3.609375 5.937500,-4.390625 3.984375,-4.890625  C 2.828125,-5.203125 2.125000,-5.531250 2.125000,-6.390625  C 2.125000,-7.125000 2.578125,-7.640625 3.531250,-7.640625  C 4.531250,-7.640625 5.140625,-7.062500 5.328125,-6.062500  L 6.765625,-6.062500  C 6.593750,-7.609375 5.546875,-8.703125 3.640625,-8.703125 " fill="#ffffff" /></g>
    <g transform="translate(63.25, 18.414062)"><path transform="translate(0.000000,0)" d=" M 6.312500,-11.265625  C 3.328125,-11.265625 0.859375,-9.281250 0.859375,-5.437500  C 0.859375,-1.703125 3.250000,0.218750 6.203125,0.218750  C 8.968750,0.218750 11.015625,-1.140625 11.281250,-3.796875  L 11.296875,-3.953125  L 8.421875,-3.953125  L 8.390625,-3.796875  C 8.140625,-2.578125 7.421875,-1.890625 6.296875,-1.890625  C 5.031250,-1.890625 3.875000,-2.828125 3.875000,-5.609375  C 3.875000,-8.000000 4.906250,-9.156250 6.281250,-9.156250  C 7.453125,-9.156250 8.171875,-8.593750 8.421875,-7.406250  L 8.453125,-7.250000  L 11.328125,-7.250000  L 11.312500,-7.406250  C 11.093750,-9.578125 9.468750,-11.265625 6.312500,-11.265625 " fill="#ffffff" /><path transform="translate(11.750000,0)" d=" M 4.968750,-8.765625  C 2.171875,-8.765625 0.390625,-7.031250 0.390625,-4.265625  C 0.390625,-1.531250 2.171875,0.218750 4.968750,0.218750  C 7.781250,0.218750 9.562500,-1.531250 9.562500,-4.265625  C 9.562500,-7.031250 7.781250,-8.765625 4.968750,-8.765625  M 4.968750,-1.734375  C 3.953125,-1.734375 3.328125,-2.578125 3.328125,-4.265625  C 3.328125,-5.984375 3.953125,-6.812500 4.968750,-6.812500  C 6.000000,-6.812500 6.625000,-5.984375 6.625000,-4.265625  C 6.625000,-2.578125 6.000000,-1.734375 4.968750,-1.734375 " fill="#ffffff" /><path transform="translate(21.703125,0)" d=" M 9.843750,-11.765625  L 6.953125,-11.765625  L 6.953125,-7.437500  L 6.406250,-8.359375  C 5.968750,-8.609375 5.140625,-8.765625 4.437500,-8.765625  C 2.234375,-8.765625 0.390625,-7.125000 0.390625,-4.078125  C 0.390625,-1.546875 1.828125,0.218750 4.140625,0.218750  C 5.015625,0.218750 5.843750,0.046875 6.312500,-0.296875  L 6.953125,-1.250000  L 6.953125,0.000000  L 9.843750,0.000000  L 9.843750,-11.765625  M 5.140625,-1.734375  C 4.125000,-1.734375 3.328125,-2.625000 3.328125,-4.218750  C 3.328125,-5.968750 4.093750,-6.812500 5.218750,-6.812500  C 6.078125,-6.812500 6.953125,-6.234375 6.953125,-4.531250  L 6.953125,-4.156250  C 6.953125,-2.375000 6.187500,-1.734375 5.140625,-1.734375 " fill="#ffffff" /><path transform="translate(32.406250,0)" d=" M 9.234375,-4.390625  C 9.234375,-6.593750 7.796875,-8.765625 4.937500,-8.765625  C 2.093750,-8.765625 0.390625,-6.734375 0.390625,-4.234375  C 0.390625,-1.234375 2.343750,0.218750 4.781250,0.218750  C 6.968750,0.218750 8.578125,-0.859375 9.078125,-2.796875  L 6.234375,-2.796875  C 6.125000,-2.140625 5.625000,-1.734375 4.812500,-1.734375  C 4.000000,-1.734375 3.375000,-2.125000 3.234375,-3.546875  L 9.187500,-3.546875  C 9.218750,-3.843750 9.234375,-4.125000 9.234375,-4.390625  M 4.796875,-6.812500  C 5.562500,-6.812500 6.062500,-6.312500 6.218750,-5.312500  L 3.328125,-5.312500  C 3.515625,-6.375000 4.046875,-6.812500 4.796875,-6.812500 " fill="#ffffff" /><path transform="translate(42.015625,0)" d=" M 6.562500,-8.765625  C 5.703125,-8.765625 4.859375,-8.593750 4.390625,-8.234375  L 3.750000,-7.296875  L 3.750000,-11.765625  L 0.859375,-11.765625  L 0.859375,0.000000  L 3.750000,0.000000  L 3.750000,-1.109375  L 4.296875,-0.187500  C 4.734375,0.062500 5.562500,0.218750 6.265625,0.218750  C 8.468750,0.218750 10.312500,-1.421875 10.312500,-4.468750  C 10.312500,-6.984375 8.875000,-8.765625 6.562500,-8.765625  M 5.484375,-1.734375  C 4.625000,-1.734375 3.750000,-2.296875 3.750000,-4.015625  L 3.750000,-4.390625  C 3.750000,-6.171875 4.515625,-6.812500 5.562500,-6.812500  C 6.578125,-6.812500 7.375000,-5.921875 7.375000,-4.312500  C 7.375000,-2.578125 6.609375,-1.734375 5.484375,-1.734375 " fill="#ffffff" /><path transform="translate(52.718750,0)" d=" M 9.234375,-4.390625  C 9.234375,-6.593750 7.796875,-8.765625 4.937500,-8.765625  C 2.093750,-8.765625 0.390625,-6.734375 0.390625,-4.234375  C 0.390625,-1.234375 2.343750,0.218750 4.781250,0.218750  C 6.968750,0.218750 8.578125,-0.859375 9.078125,-2.796875  L 6.234375,-2.796875  C 6.125000,-2.140625 5.625000,-1.734375 4.812500,-1.734375  C 4.000000,-1.734375 3.375000,-2.125000 3.234375,-3.546875  L 9.187500,-3.546875  C 9.218750,-3.843750 9.234375,-4.125000 9.234375,-4.390625  M 4.796875,-6.812500  C 5.562500,-6.812500 6.062500,-6.312500 6.218750,-5.312500  L 3.328125,-5.312500  C 3.515625,-6.375000 4.046875,-6.812500 4.796875,-6.812500 " fill="#ffffff" /><path transform="translate(62.328125,0)" d=" M 6.031250,-8.765625  C 5.484375,-8.765625 4.812500,-8.531250 4.359375,-8.015625  L 3.750000,-6.812500  L 3.750000,-8.546875  L 0.859375,-8.546875  L 0.859375,0.000000  L 3.750000,0.000000  L 3.750000,-3.140625  C 3.750000,-5.718750 4.531250,-6.515625 6.687500,-6.375000  L 6.687500,-8.718750  C 6.484375,-8.750000 6.296875,-8.765625 6.031250,-8.765625 " fill="#ffffff" /><path transform="translate(69.046875,0)" d=" M 9.843750,-8.546875  L 6.953125,-8.546875  L 6.953125,-7.437500  L 6.406250,-8.359375  C 5.968750,-8.609375 5.140625,-8.765625 4.437500,-8.765625  C 2.234375,-8.765625 0.390625,-7.250000 0.390625,-4.203125  C 0.390625,-1.687500 1.984375,-0.093750 4.296875,-0.093750  C 5.171875,-0.093750 5.843750,-0.265625 6.312500,-0.625000  L 6.953125,-1.562500  L 6.953125,-1.328125  C 6.953125,-0.859375 6.937500,-0.468750 6.921875,-0.203125  C 6.843750,0.937500 6.062500,1.406250 4.984375,1.406250  C 4.093750,1.406250 3.437500,1.093750 3.375000,0.531250  L 3.359375,0.375000  L 0.578125,0.375000  L 0.593750,0.531250  C 0.796875,2.484375 2.359375,3.515625 4.906250,3.515625  C 7.812500,3.515625 9.734375,2.265625 9.828125,-0.531250  C 9.843750,-0.984375 9.843750,-1.640625 9.843750,-2.171875  L 9.843750,-8.546875  M 5.140625,-2.046875  C 4.125000,-2.046875 3.328125,-2.812500 3.328125,-4.421875  C 3.328125,-6.156250 4.093750,-6.812500 5.218750,-6.812500  C 6.078125,-6.812500 6.953125,-6.234375 6.953125,-4.531250  L 6.953125,-4.484375  C 6.953125,-2.687500 6.187500,-2.046875 5.140625,-2.046875 " fill="#ffffff" /></g>
</svg>