<?xml version="1.0" encoding="UTF-8"?>
<svg xmlns:svg="http://www.w3.org/2000/svg" xmlns="http://www.w3.org/2000/svg" width="172.39062" height="25" viewBox="0 0 172.39062 25">
    <rect fill="#29B7A4" width="124.3125" height="25" x="0" y="0" />
    <rect fill="#17685D" width="48.078125" height="25" x="124.3125" y="0" />
    <g transform="translate(6.25, 18.414062)"><path transform="translate(0.000000,0)" d=" M 6.375000,-10.968750  C 5.812500,-11.046875 5.546875,-11.046875 4.953125,-11.046875  L 1.593750,-11.046875  L 1.593750,0.000000  L 4.875000,0.000000  C 5.468750,0.000000 5.734375,0.000000 6.281250,-0.062500  C 8.843750,-0.390625 10.734375,-2.406250 10.734375,-5.640625  C 10.734375,-8.937500 8.921875,-10.656250 6.375000,-10.968750  M 6.140625,-1.203125  C 5.796875,-1.140625 5.375000,-1.125000 4.796875,-1.125000  L 2.968750,-1.125000  L 2.968750,-9.921875  L 4.875000,-9.921875  C 5.453125,-9.921875 5.875000,-9.906250 6.218750,-9.843750  C 8.093750,-9.531250 9.234375,-8.093750 9.234375,-5.640625  C 9.234375,-3.046875 8.015625,-1.500000 6.140625,-1.203125 " fill="#ffffff" /><path transform="translate(11.343750,0)" d=" M 4.687500,-8.703125  C 1.812500,-8.703125 0.484375,-6.640625 0.484375,-4.234375  C 0.484375,-1.859375 1.812500,0.218750 4.687500,0.218750  C 7.562500,0.218750 8.890625,-1.859375 8.890625,-4.234375  C 8.890625,-6.640625 7.562500,-8.703125 4.687500,-8.703125  M 4.687500,-0.828125  C 2.968750,-0.828125 1.984375,-2.250000 1.984375,-4.234375  C 1.984375,-6.234375 2.968750,-7.640625 4.687500,-7.640625  C 6.406250,-7.640625 7.390625,-6.234375 7.390625,-4.234375  C 7.390625,-2.250000 6.406250,-0.828125 4.687500,-0.828125 " fill="#ffffff" /><path transform="translate(20.718750,0)" d=" M 4.468750,-8.703125  C 2.343750,-8.703125 0.484375,-7.093750 0.484375,-4.218750  C 0.484375,-1.125000 2.109375,0.218750 4.250000,0.218750  C 6.140625,0.218750 7.546875,-0.734375 7.968750,-2.703125  L 6.531250,-2.703125  C 6.234375,-1.468750 5.453125,-0.828125 4.343750,-0.828125  C 3.078125,-0.828125 1.984375,-1.859375 1.984375,-4.312500  C 1.984375,-6.609375 3.109375,-7.640625 4.437500,-7.640625  C 5.562500,-7.640625 6.296875,-6.984375 6.609375,-5.625000  L 8.046875,-5.625000  C 7.796875,-7.484375 6.500000,-8.703125 4.468750,-8.703125 " fill="#ffffff" /><path transform="translate(29.187500,0)" d=" M 8.218750,-8.484375  L 6.843750,-8.484375  L 6.843750,-4.750000  C 6.843750,-1.859375 5.796875,-0.859375 4.468750,-0.859375  C 3.312500,-0.859375 2.625000,-1.515625 2.500000,-2.484375  C 2.453125,-2.906250 2.437500,-3.375000 2.437500,-3.640625  L 2.437500,-8.484375  L 1.062500,-8.484375  L 1.062500,-3.390625  C 1.062500,-2.703125 1.078125,-2.375000 1.140625,-1.937500  C 1.328125,-0.765625 2.359375,0.218750 4.109375,0.218750  C 4.968750,0.218750 5.593750,0.078125 6.312500,-0.453125  L 6.843750,-1.437500  L 6.843750,0.000000  L 8.218750,0.000000  L 8.218750,-8.484375 " fill="#ffffff" /><path transform="translate(38.656250,0)" d=" M 12.468750,-6.640625  C 12.265625,-7.812500 11.406250,-8.703125 9.890625,-8.703125  C 9.140625,-8.703125 8.531250,-8.562500 8.093750,-8.203125  L 7.343750,-7.125000  C 7.031250,-8.046875 6.187500,-8.703125 4.890625,-8.703125  C 4.140625,-8.703125 3.531250,-8.562500 3.109375,-8.203125  L 2.562500,-7.250000  L 2.562500,-8.484375  L 1.187500,-8.484375  L 1.187500,0.000000  L 2.562500,0.000000  L 2.562500,-4.187500  C 2.562500,-6.765625 3.343750,-7.609375 4.421875,-7.609375  C 5.375000,-7.609375 5.984375,-7.156250 6.109375,-6.187500  C 6.156250,-5.765625 6.171875,-5.296875 6.171875,-4.546875  L 6.171875,0.000000  L 7.546875,0.000000  L 7.546875,-4.187500  C 7.546875,-6.765625 8.343750,-7.609375 9.406250,-7.609375  C 10.375000,-7.609375 10.968750,-7.156250 11.109375,-6.187500  C 11.156250,-5.765625 11.171875,-5.296875 11.171875,-4.546875  L 11.171875,0.000000  L 12.546875,0.000000  L 12.546875,-5.187500  C 12.546875,-5.875000 12.531250,-6.203125 12.468750,-6.640625 " fill="#ffffff" /><path transform="translate(52.343750,0)" d=" M 8.140625,-4.484375  C 8.140625,-6.953125 6.843750,-8.703125 4.515625,-8.703125  C 2.187500,-8.703125 0.484375,-6.953125 0.484375,-4.203125  C 0.484375,-1.218750 2.125000,0.218750 4.343750,0.218750  C 6.078125,0.218750 7.703125,-0.687500 8.031250,-2.734375  L 6.593750,-2.734375  C 6.406250,-1.515625 5.500000,-0.828125 4.406250,-0.828125  C 3.156250,-0.828125 2.093750,-1.578125 1.968750,-3.828125  L 8.109375,-3.828125  C 8.140625,-4.125000 8.140625,-4.359375 8.140625,-4.484375  M 4.484375,-7.640625  C 5.875000,-7.640625 6.625000,-6.640625 6.750000,-4.875000  L 1.984375,-4.875000  C 2.140625,-6.687500 3.140625,-7.640625 4.484375,-7.640625 " fill="#ffffff" /><path transform="translate(61.125000,0)" d=" M 8.312500,-6.218750  C 8.187500,-7.718750 7.156250,-8.703125 5.296875,-8.703125  C 4.437500,-8.703125 3.812500,-8.562500 3.093750,-8.000000  L 2.562500,-7.031250  L 2.562500,-8.484375  L 1.187500,-8.484375  L 1.187500,0.000000  L 2.562500,0.000000  L 2.562500,-3.734375  C 2.562500,-6.625000 3.687500,-7.609375 5.015625,-7.609375  C 6.312500,-7.609375 6.859375,-6.875000 6.937500,-5.890625  C 6.968750,-5.453125 6.968750,-5.109375 6.968750,-4.671875  L 6.968750,0.000000  L 8.359375,0.000000  L 8.359375,-4.765625  C 8.359375,-5.453125 8.359375,-5.796875 8.312500,-6.218750 " fill="#ffffff" /><path transform="translate(70.609375,0)" d=" M 2.828125,-7.359375  L 4.421875,-7.359375  L 4.421875,-8.421875  L 2.828125,-8.421875  L 2.828125,-10.390625  L 1.453125,-10.390625  L 1.453125,-8.421875  L 0.312500,-8.421875  L 0.312500,-7.359375  L 1.453125,-7.359375  L 1.453125,-2.421875  C 1.453125,-1.937500 1.453125,-1.578125 1.468750,-1.359375  C 1.546875,-0.296875 2.093750,0.125000 3.156250,0.125000  C 3.531250,0.125000 3.921875,0.109375 4.312500,0.046875  L 4.312500,-0.953125  C 3.250000,-0.828125 2.906250,-1.015625 2.843750,-1.828125  C 2.828125,-2.046875 2.828125,-2.187500 2.828125,-2.484375  L 2.828125,-7.359375 " fill="#ffffff" /><path transform="translate(75.625000,0)" d=" M 6.046875,0.000000  L 7.421875,0.000000  C 7.296875,-0.937500 7.265625,-1.515625 7.265625,-2.156250  L 7.265625,-5.343750  C 7.265625,-5.718750 7.250000,-6.125000 7.218750,-6.468750  C 7.078125,-7.859375 6.218750,-8.703125 4.203125,-8.703125  C 2.343750,-8.703125 1.078125,-7.656250 0.937500,-5.859375  L 2.390625,-5.859375  C 2.484375,-7.031250 3.062500,-7.640625 4.203125,-7.640625  C 5.343750,-7.640625 5.796875,-7.140625 5.859375,-6.359375  C 5.890625,-6.031250 5.890625,-5.703125 5.890625,-5.328125  L 5.890625,-5.109375  L 5.343750,-5.109375  C 2.015625,-5.109375 0.578125,-4.109375 0.578125,-2.187500  C 0.578125,-0.625000 1.781250,0.218750 3.312500,0.218750  C 4.125000,0.218750 4.859375,0.093750 5.437500,-0.296875  L 5.906250,-1.218750  L 6.046875,0.000000  M 3.781250,-0.828125  C 2.734375,-0.828125 2.078125,-1.281250 2.078125,-2.296875  C 2.078125,-3.765625 3.546875,-4.250000 5.890625,-4.078125  L 5.890625,-3.218750  C 5.890625,-1.687500 5.062500,-0.828125 3.781250,-0.828125 " fill="#ffffff" /><path transform="translate(84.125000,0)" d=" M 2.828125,-7.359375  L 4.421875,-7.359375  L 4.421875,-8.421875  L 2.828125,-8.421875  L 2.828125,-10.390625  L 1.453125,-10.390625  L 1.453125,-8.421875  L 0.312500,-8.421875  L 0.312500,-7.359375  L 1.453125,-7.359375  L 1.453125,-2.421875  C 1.453125,-1.937500 1.453125,-1.578125 1.468750,-1.359375  C 1.546875,-0.296875 2.093750,0.125000 3.156250,0.125000  C 3.531250,0.125000 3.921875,0.109375 4.312500,0.046875  L 4.312500,-0.953125  C 3.250000,-0.828125 2.906250,-1.015625 2.843750,-1.828125  C 2.828125,-2.046875 2.828125,-2.187500 2.828125,-2.484375  L 2.828125,-7.359375 " fill="#ffffff" /><path transform="translate(89.140625,0)" d=" M 1.875000,-11.265625  C 1.375000,-11.265625 0.984375,-10.875000 0.984375,-10.390625  C 0.984375,-9.890625 1.375000,-9.500000 1.875000,-9.500000  C 2.375000,-9.500000 2.750000,-9.890625 2.750000,-10.390625  C 2.750000,-10.875000 2.375000,-11.265625 1.875000,-11.265625  M 2.562500,0.000000  L 2.562500,-8.484375  L 1.187500,-8.484375  L 1.187500,0.000000  L 2.562500,0.000000 " fill="#ffffff" /><path transform="translate(92.953125,0)" d=" M 4.687500,-8.703125  C 1.812500,-8.703125 0.484375,-6.640625 0.484375,-4.234375  C 0.484375,-1.859375 1.812500,0.218750 4.687500,0.218750  C 7.562500,0.218750 8.890625,-1.859375 8.890625,-4.234375  C 8.890625,-6.640625 7.562500,-8.703125 4.687500,-8.703125  M 4.687500,-0.828125  C 2.968750,-0.828125 1.984375,-2.250000 1.984375,-4.234375  C 1.984375,-6.234375 2.968750,-7.640625 4.687500,-7.640625  C 6.406250,-7.640625 7.390625,-6.234375 7.390625,-4.234375  C 7.390625,-2.250000 6.406250,-0.828125 4.687500,-0.828125 " fill="#ffffff" /><path transform="translate(102.328125,0)" d=" M 8.312500,-6.218750  C 8.187500,-7.718750 7.156250,-8.703125 5.296875,-8.703125  C 4.437500,-8.703125 3.812500,-8.562500 3.093750,-8.000000  L 2.562500,-7.031250  L 2.562500,-8.484375  L 1.187500,-8.484375  L 1.187500,0.000000  L 2.562500,0.000000  L 2.562500,-3.734375  C 2.562500,-6.625000 3.687500,-7.609375 5.015625,-7.609375  C 6.312500,-7.609375 6.859375,-6.875000 6.937500,-5.890625  C 6.968750,-5.453125 6.968750,-5.109375 6.968750,-4.671875  L 6.968750,0.000000  L 8.359375,0.000000  L 8.359375,-4.765625  C 8.359375,-5.453125 8.359375,-5.796875 8.312500,-6.218750 " fill="#ffffff" /></g>
    <g transform="translate(130.5625, 18.414062)"><path transform="translate(0.000000,0)" d=" M 16.468750,-11.046875  L 13.515625,-11.046875  L 11.921875,-2.203125  L 10.531250,-10.875000  L 6.406250,-10.875000  L 4.937500,-2.234375  L 3.468750,-11.046875  L 0.421875,-11.046875  L 3.078125,0.000000  L 6.921875,0.000000  L 8.421875,-8.593750  L 9.812500,0.000000  L 13.640625,0.000000  L 16.468750,-11.046875 " fill="#ffffff" /><path transform="translate(16.250000,0)" d=" M 2.296875,-12.015625  C 1.406250,-12.015625 0.812500,-11.468750 0.812500,-10.609375  C 0.812500,-9.750000 1.406250,-9.203125 2.296875,-9.203125  C 3.203125,-9.203125 3.796875,-9.750000 3.796875,-10.609375  C 3.796875,-11.468750 3.203125,-12.015625 2.296875,-12.015625  M 3.750000,0.000000  L 3.750000,-8.546875  L 0.859375,-8.546875  L 0.859375,0.000000  L 3.750000,0.000000 " fill="#ffffff" /><path transform="translate(20.859375,0)" d=" M 4.359375,-3.171875  L 6.640625,0.000000  L 10.171875,0.000000  L 6.515625,-4.625000  L 10.125000,-8.546875  L 6.750000,-8.546875  L 3.750000,-4.953125  L 3.750000,-11.765625  L 0.859375,-11.765625  L 0.859375,0.000000  L 3.750000,0.000000  L 3.750000,-2.500000  L 4.359375,-3.171875 " fill="#ffffff" /><path transform="translate(30.968750,0)" d=" M 2.296875,-12.015625  C 1.406250,-12.015625 0.812500,-11.468750 0.812500,-10.609375  C 0.812500,-9.750000 1.406250,-9.203125 2.296875,-9.203125  C 3.203125,-9.203125 3.796875,-9.750000 3.796875,-10.609375  C 3.796875,-11.468750 3.203125,-12.015625 2.296875,-12.015625  M 3.750000,0.000000  L 3.750000,-8.546875  L 0.859375,-8.546875  L 0.859375,0.000000  L 3.750000,0.000000 " fill="#ffffff" /></g>
</svg>